<svg version="1.1" id="Layer_1" xmlns="http://www.w3.org/2000/svg" xmlns:xlink="http://www.w3.org/1999/xlink" x="0px" y="0px"
	 width="100%" viewBox="0 0 800 800" enable-background="new 0 0 800 800" xml:space="preserve">
<path fill="#000000" opacity="1.000000" stroke="none" 
	d="
M386.953400,348.112610 
	C388.691864,353.933380 390.774323,359.187988 393.300934,364.268799 
	C396.179138,370.056519 396.181763,370.072693 401.692322,366.949097 
	C410.857025,361.754120 420.271545,357.256042 430.827393,355.577881 
	C454.499603,351.814453 469.375397,362.490662 473.204742,385.948059 
	C475.639648,400.863342 472.539001,414.562347 465.369263,427.759857 
	C455.383392,446.141022 436.727417,451.998260 418.176819,447.841553 
	C406.114349,445.138611 395.331177,439.732361 385.235657,432.775909 
	C383.167847,431.350983 381.331024,429.862823 378.560516,431.888885 
	C360.947418,444.769348 349.547180,461.175903 349.382507,483.742218 
	C349.200348,508.703247 366.060303,526.764465 390.868408,529.853455 
	C416.248047,533.013672 438.801361,525.075562 460.760925,513.899536 
	C489.339447,499.354919 511.770477,477.908661 530.273499,452.045105 
	C532.086975,449.510132 533.800659,446.796814 537.300110,450.061493 
	C538.374451,451.063782 538.708923,452.091858 538.669189,453.567078 
	C537.370483,501.763947 519.206299,542.303833 482.602570,573.799438 
	C458.481018,594.554688 429.898834,606.713806 398.646179,612.197205 
	C371.305176,616.994202 343.962524,617.317871 317.251251,608.429382 
	C279.683594,595.928284 256.610870,570.017395 250.955414,530.895813 
	C243.975769,482.613983 261.704926,443.206696 298.503601,411.941711 
	C305.907166,405.651459 314.251160,400.783905 322.938232,396.478790 
	C324.537292,395.686310 326.402405,395.167206 327.360229,393.316040 
	C327.133972,390.586060 324.744843,389.587280 322.976257,388.255096 
	C301.673126,372.208313 288.037323,351.333527 283.966003,324.848602 
	C279.966187,298.828827 287.244263,275.278931 301.986206,254.030777 
	C321.856812,225.390549 349.825531,207.700531 382.372681,196.761368 
	C399.002655,191.171997 416.270813,188.883804 433.742554,187.473419 
	C456.846436,185.608398 479.706451,186.529648 502.001801,192.938721 
	C519.286926,197.907562 534.786316,206.208817 544.678650,222.192657 
	C554.177795,237.541214 555.350464,254.178696 549.181213,270.628357 
	C536.833740,303.551910 511.700195,321.190887 477.772736,327.397766 
	C469.931488,328.832275 462.095062,330.047424 453.387543,328.883209 
	C455.271454,322.041504 457.184814,315.573517 458.823303,309.036621 
	C461.707764,297.528442 463.118073,285.927704 461.724945,273.993011 
	C459.449799,254.502014 442.110474,244.532303 423.488068,252.542023 
	C400.387695,262.477722 388.050537,280.856598 383.378479,304.930420 
	C380.554688,319.480560 382.685211,333.705811 386.953400,348.112610 
z"/>
</svg>